# xmcd CD database file
#
# Track frame offsets:
#	150
#	12810
#	31360
#	42255
#	52305
#	63937
#	105820
#	121895
#	133117
#	156867
#	167950
#	180025
#	191920
#
# Disc length: 2703 seconds
#
# Revision: 1
# Processed by: cddbd v1.5.1PL2 Copyright (c) Steve Scherf et al.
# Submitted via: CDex 1.51
#
DISCID=a70a8d0d
DTITLE=Various Artist - Soulfreedom
DYEAR=2002
DGENRE=Jazz
TTITLE0=The Barbara Moore Sound - Hot Heels
TTITLE1=Ray and His Court - Soul Freedom
TTITLE2=The Trinikas - Remember Me
TTITLE3=Eddie Warner - Devil's Anvil
TTITLE4=Nino Nardini - Tropicola
TTITLE5=Pi-R-Square - Fantasy (Full Length)
TTITLE6=Esther Williams - Last Night Changed it All
TTITLE7=Sandi And Matues - The World (Pt. 1)
TTITLE8=The Highlighters Band - Funky 16 Corners
TTITLE9=Tommie Young - Hit And Run Lover
TTITLE10=Andy Loore - Mixed Drums
TTITLE11=The Basic - Milk
TTITLE12=Cecil Leuter - Pop Electronique No. 2
EXTD=YEAR: 2002
EXTT0=
EXTT1=
EXTT2=
EXTT3=
EXTT4=
EXTT5=
EXTT6=
EXTT7=
EXTT8=
EXTT9=
EXTT10=
EXTT11=
EXTT12=
PLAYORDER=
